<svg id="圖層_1" data-name="圖層 1" xmlns="http://www.w3.org/2000/svg" viewBox="0 0 65.65 131.29"><defs><style>.cls-1{fill:#221714;}</style></defs><title>diclogo</title><path class="cls-1" d="M59.52,44.48c-.21.24-.37.6-.63.69-10,3.54-10,3.55-7.78,13.75a43.4,43.4,0,0,1,.7,9.44c0,12.48,0,25,0,37.45,0,4.15-.21,8.29,1,12.39.68,2.33.46,4.93-3.07,3.35-15.42-7-28.37-16.68-35.59-32.63a44.55,44.55,0,0,1-4.3-18.34q-.1-23.71,0-47.43c0-6.44,1.21-7,7.09-4.3,7.63,3.55,14.63,8,20.21,14.36C43.1,40,48.69,47.06,59.78,43.1ZM46.79,84.89h0c0-7.48.1-15-.06-22.44-.06-2.82,1.25-6.72-2.26-8S38.84,56.63,36.93,59c-14.11,17.45-8.42,39.54,6.51,54.31.53.54,1.53,1.14,2.12,1,1.41-.39,1.2-1.86,1.2-3C46.8,102.51,46.79,93.7,46.79,84.89ZM13.53,44.65h.1q0,9.72,0,19.46c0,1.16-.14,2.51,1.2,3s2.19-.59,2.8-1.57A44.5,44.5,0,0,1,37.77,48.27c3.59-1.61,3.95-4,1.72-7.17C34,33.29,26.42,27.93,18.69,22.8c-3.32-2.2-5.16-.73-5.16,3.39Q13.54,35.42,13.53,44.65Z"/><path class="cls-1" d="M42.55,17.53c.18-3.24,1.66-5.56,5.06-5.66s5.78,1.8,5.82,5.43c0,3.38-2.11,5.26-5.33,5.43C44.7,22.91,43,20.79,42.55,17.53Z"/></svg>